HIERARCHY
ROOT reference
{
  OFFSET 0 0 0
  CHANNELS 6 Xposition Yposition Zposition Zrotation Xrotation Yrotation
  JOINT Hips
  {
    OFFSET -38.7603 78.2502 -42.6915
    CHANNELS 6 Xposition Yposition Zposition Zrotation Xrotation Yrotation
    JOINT Spine
    {
      OFFSET 0 7.52385 0
      CHANNELS 6 Xposition Yposition Zposition Zrotation Xrotation Yrotation
      JOINT Spine1
      {
        OFFSET 0 21.7843 0
        CHANNELS 6 Xposition Yposition Zposition Zrotation Xrotation Yrotation
        JOINT Neck
        {
          OFFSET 0 21.6948 1.97225
          CHANNELS 6 Xposition Yposition Zposition Zrotation Xrotation Yrotation
          JOINT Head
          {
            OFFSET 0 12.8456 -1.83509
            CHANNELS 6 Xposition Yposition Zposition Zrotation Xrotation Yrotation
            End Site
            {
              OFFSET 0 22.9386 0
            }
          }
        }
        JOINT LeftShoulder
        {
          OFFSET 3.65748 19.7052 -0.211895
          CHANNELS 6 Xposition Yposition Zposition Zrotation Xrotation Yrotation
          JOINT LeftArm
          {
            OFFSET 11.1953 0 0
            CHANNELS 6 Xposition Yposition Zposition Zrotation Xrotation Yrotation
            JOINT LeftForeArm
            {
              OFFSET 29.6607 0 0
              CHANNELS 6 Xposition Yposition Zposition Zrotation Xrotation Yrotation
              JOINT LeftHand
              {
                OFFSET 23.3476 0 0
                CHANNELS 6 Xposition Yposition Zposition Zrotation Xrotation Yrotation
                End Site
                {
                  OFFSET 13.7631 0 0
                }
              }
            }
          }
        }
        JOINT RightShoulder
        {
          OFFSET -3.68053 19.7052 -0.211895
          CHANNELS 6 Xposition Yposition Zposition Zrotation Xrotation Yrotation
          JOINT RightArm
          {
            OFFSET -11.1953 0 0
            CHANNELS 6 Xposition Yposition Zposition Zrotation Xrotation Yrotation
            JOINT RightForeArm
            {
              OFFSET -29.6607 0 0
              CHANNELS 6 Xposition Yposition Zposition Zrotation Xrotation Yrotation
              JOINT RightHand
              {
                OFFSET -23.3476 0 0
                CHANNELS 6 Xposition Yposition Zposition Zrotation Xrotation Yrotation
                End Site
                {
                  OFFSET -13.7631 0 0
                }
              }
            }
          }
        }
      }
    }
    JOINT LeftUpLeg
    {
      OFFSET 9.17543 0 0
      CHANNELS 6 Xposition Yposition Zposition Zrotation Xrotation Yrotation
      JOINT LeftLeg
      {
        OFFSET 0 -39.1216 0
        CHANNELS 6 Xposition Yposition Zposition Zrotation Xrotation Yrotation
        JOINT LeftFoot
        {
          OFFSET 0 -35.3569 0
          CHANNELS 6 Xposition Yposition Zposition Zrotation Xrotation Yrotation
          JOINT LeftToeBase
          {
            OFFSET 0 -5.96403 13.7631
            CHANNELS 6 Xposition Yposition Zposition Zrotation Xrotation Yrotation
            End Site
            {
              OFFSET 0 0 3.67017
            }
          }
        }
      }
    }
    JOINT RightUpLeg
    {
      OFFSET -9.17543 0 0
      CHANNELS 6 Xposition Yposition Zposition Zrotation Xrotation Yrotation
      JOINT RightLeg
      {
        OFFSET 0 -39.1216 0
        CHANNELS 6 Xposition Yposition Zposition Zrotation Xrotation Yrotation
        JOINT RightFoot
        {
          OFFSET 0 -35.3569 0
          CHANNELS 6 Xposition Yposition Zposition Zrotation Xrotation Yrotation
          JOINT RightToeBase
          {
            OFFSET 0 -5.96403 13.7631
            CHANNELS 6 Xposition Yposition Zposition Zrotation Xrotation Yrotation
            End Site
            {
              OFFSET 0 0 3.67017
            }
          }
        }
      }
    }
  }
}
MOTION
Frames:	5
Frame Time:	0.004
0 0 0 0 0 -0 -10.6605 69.5179 -197.249 -2.05124 -5.58627 9.0058 -3.55271e-015 7.52385 -2.84217e-014 3.10833 19.3644 1.11079 -3.55271e-015 21.7843 0 8.98074 17.0519 0.292225 0 21.6948 1.97225 1.87639 15.3283 -8.56086 8.88178e-016 12.8456 -1.83509 2.77657 31.8771 -9.35791 3.65748 19.7052 -0.211895 2.67873 10.7356 -3.21844 11.1953 -1.42109e-014 2.84217e-014 -35.5772 15.1265 2.95882 29.6607 1.42109e-014 0 27.7956 -26.9079 -69.9323 23.3476 -1.42109e-014 -1.42109e-014 0.999607 -7.90854 -0.686832 -3.68053 19.7052 -0.211895 -2.52971 10.7266 3.85113 -11.1953 0 0 25.338 19.2848 34.1721 -29.6607 -1.42109e-014 0 -20.5467 -24.686 50.3298 -23.3476 0 0 -4.30574 -15.7268 5.93601 9.17543 0 0 23.4434 -34.399 3.82528 0 -39.1216 -2.84217e-014 -48.9422 68.1987 41.0855 0 -35.3569 0 3.91732 -17.7713 12.5986 -1.42109e-014 -5.96403 13.7631 -8.82781e-032 1.59028e-015 3.18055e-015 -9.17543 0 -2.84217e-014 -14.3379 4.24548 1.37406 -3.55271e-015 -39.1216 0 4.79893 35.1572 5.13645 -1.42109e-014 -35.3569 -2.84217e-014 16.938 -26.4273 -13.4999 1.42109e-014 -5.96403 13.7631 5.96354e-016 0 -0 
0 0 0 0 0 -0 -10.3067 69.7492 -196.897 -2.01838 -5.4635 9.07521 -7.10543e-015 7.52385 0 2.91473 19.1838 1.28451 -3.55271e-015 21.7843 2.84217e-014 8.99809 17.0768 0.42354 0 21.6948 1.97225 1.7763 15.3524 -8.64926 2.66454e-015 12.8456 -1.83509 2.85907 31.7619 -9.45791 3.65748 19.7052 -0.211895 2.86016 10.4769 -3.25685 11.1953 0 0 -35.3261 14.5337 3.20201 29.6607 1.42109e-014 0 27.3681 -26.988 -70.6002 23.3476 1.42109e-014 1.42109e-014 1.27019 -8.07579 -0.805401 -3.68053 19.7052 -0.211895 -2.54872 10.8534 3.72653 -11.1953 1.42109e-014 -2.84217e-014 25.1584 19.715 33.9578 -29.6607 1.42109e-014 0 -20.5154 -25.0079 50.8545 -23.3476 0 -3.55271e-015 -4.46695 -15.9658 5.60546 9.17543 -1.42109e-014 0 23.7256 -34.3736 3.65688 0 -39.1216 1.42109e-014 -47.1614 67.4865 39.8005 0 -35.3569 0 3.39909 -17.2269 12.5416 0 -5.96403 13.7631 1.59028e-015 -1.59028e-015 3.18055e-015 -9.17543 0 0 -14.5298 4.63805 1.66016 0 -39.1216 0 4.74032 34.5376 4.94493 -7.10543e-015 -35.3569 2.84217e-014 17.5616 -25.2881 -13.4712 -1.42109e-014 -5.96403 13.7631 3.97569e-016 1.59028e-015 -0 
0 0 0 0 0 -0 -9.9586 69.9816 -196.56 -2.00087 -5.26404 9.06997 -7.10543e-015 7.52385 0 2.67599 18.9453 1.506 0 21.7843 0 8.98888 17.0894 0.599325 0 21.6948 1.97225 1.71492 15.3519 -8.73323 0 12.8456 -1.83509 2.92055 31.641 -9.55056 3.65748 19.7052 -0.211895 3.20363 10.1774 -3.26894 11.1953 0 0 -35.2001 14.142 3.39327 29.6607 -1.42109e-014 2.84217e-014 27.2901 -27.1895 -71.0058 23.3476 0 0 1.19013 -8.2101 -1.01741 -3.68053 19.7052 -0.211895 -2.62348 10.9735 3.56932 -11.1953 0 0 24.9801 20.2795 33.7782 -29.6607 -1.42109e-014 0 -20.5636 -25.3978 51.312 -23.3476 0 3.55271e-015 -4.39986 -16.2481 5.41742 9.17543 0 2.84217e-014 24.0647 -34.3504 3.67423 0 -39.1216 2.84217e-014 -45.1641 66.7948 38.4707 0 -35.3569 2.84217e-014 2.83865 -16.633 12.2544 0 -5.96403 13.7631 1.59028e-015 -3.18055e-015 -0 -9.17543 0 -2.84217e-014 -14.727 4.85694 1.81893 -3.55271e-015 -39.1216 0 4.56839 34.0515 5.1083 0 -35.3569 -2.84217e-014 18.1567 -24.1802 -13.5777 0 -5.96403 13.7631 7.95139e-016 -1.59028e-015 -3.18055e-015 
0 0 0 0 0 -0 -9.60369 70.2208 -196.218 -1.98636 -5.0534 9.08098 0 7.52385 -2.84217e-014 2.51599 18.8381 1.65461 -3.55271e-015 21.7843 0 8.85962 16.8333 0.758605 0 21.6948 1.97225 1.6071 15.4658 -8.72833 0 12.8456 -1.83509 2.98489 31.5374 -9.54919 3.65748 19.7052 -0.211895 3.43624 9.91954 -3.18495 11.1953 1.42109e-014 0 -34.9802 13.8043 3.61581 29.6607 0 0 26.9662 -27.5996 -71.6004 23.3476 0 0 1.24302 -8.69558 -0.915593 -3.68053 19.7052 -0.211895 -2.52316 11.2075 3.53993 -11.1953 -2.84217e-014 -2.84217e-014 24.5988 21.0757 33.5002 -29.6607 0 -2.84217e-014 -20.9032 -25.8677 51.7358 -23.3476 0 1.77636e-015 -4.52928 -16.4796 4.94074 9.17543 0 0 24.3576 -34.3134 3.62961 0 -39.1216 0 -43.1656 66.0495 37.007 0 -35.3569 0 3.28104 -15.9511 12.0035 0 -5.96403 13.7631 1.59028e-015 -1.59028e-015 -6.36111e-015 -9.17543 0 -2.84217e-014 -14.927 5.0652 2.00211 0 -39.1216 0 4.4316 33.5504 5.05789 -7.10543e-015 -35.3569 0 18.7398 -22.9345 -13.5695 0 -5.96403 13.7631 3.97569e-016 -1.59028e-015 -3.18055e-015 
0 0 0 0 0 -0 -9.24671 70.4637 -195.863 -1.99565 -4.86723 9.12354 3.55271e-015 7.52385 -2.84217e-014 2.35257 18.5471 1.81422 -3.55271e-015 21.7843 0 8.79874 16.909 0.888045 0 21.6948 1.97225 1.48947 15.3903 -8.75207 -1.77636e-015 12.8456 -1.83509 3.07145 31.4991 -9.58568 3.65748 19.7052 -0.211895 3.79757 9.51192 -3.07754 11.1953 0 2.84217e-014 -34.8032 13.6309 3.70444 29.6607 2.84217e-014 0 26.9202 -27.9738 -71.9886 23.3476 0 0 1.17303 -9.00546 -1.00116 -3.68053 19.7052 -0.211895 -2.62381 11.3114 3.42167 -11.1953 1.42109e-014 0 24.526 21.5848 33.33 -29.6607 0 0 -21.1835 -26.0349 52.021 -23.3476 -1.42109e-014 -2.66454e-015 -3.99516 -16.4359 4.93458 9.17543 0 -2.84217e-014 24.6599 -34.2025 3.51949 0 -39.1216 0 -41.2288 65.1687 35.5525 1.42109e-014 -35.3569 0 2.51484 -15.2318 11.7023 -1.42109e-014 -5.96403 13.7631 3.18055e-015 1.59028e-015 -3.18055e-015 -9.17543 1.42109e-014 0 -15.1137 5.2792 1.96361 0 -39.1216 0 4.19166 33.1254 5.3223 -7.10543e-015 -35.3569 0 19.3336 -21.6625 -13.6444 0 -5.96403 13.7631 -7.95139e-016 3.18055e-015 -0 
